<?xml version="1.0" encoding="UTF-8"?>
<svg width="98px" height="99px" viewBox="0 0 98 99" version="1.1" xmlns="http://www.w3.org/2000/svg" xmlns:xlink="http://www.w3.org/1999/xlink">
    <!-- Generator: Sketch 55.2 (78181) - https://sketchapp.com -->
    <title>Slice 1</title>
    <desc>Created with Sketch.</desc>
    <g id="Page-1" stroke="none" stroke-width="1" fill="none" fill-rule="evenodd">
        <ellipse id="Oval" stroke="#979797" fill="#D8D8D8" cx="49" cy="49.5" rx="48" ry="48.5"></ellipse>
        <g id="noun_weather_2655959" transform="translate(9.000000, 17.000000)" fill="#000000" fill-rule="nonzero">
            <path d="M34.3896011,31.725632 C30.5160867,30.3862859 26.0147819,30.9125141 22.5973668,33.3521557 C14.6884746,27.6876667 3,32.8999519 3,42.0033046 C3,48.0615116 8.42856396,53 15.1169098,53 L67.8701698,53 C74.5584364,53 80,48.0615117 80,42.0033046 C80,35.4147689 73.7402479,30.8416549 68.1818455,30.9830855 C65.2856866,24.8070437 58.9480948,21 51.4805595,21 C43.636349,21 37.0389242,25.172418 34.3896011,31.725632 Z" id="Path"></path>
            <path d="M7,24.3157263 C7,26.250305 7.35178643,28.1729303 8.04223901,29.9881194 C12.8786669,27.4334142 18.4752843,27.5434743 22.9334476,30 C26.0532465,28.3140403 29.751855,27.7408534 33.2647898,28.3759217 C35.5577633,24.2082173 39.3750122,21.0435899 44,19.3717704 C41.6549424,12.2066423 34.3591923,7 25.8908713,7 C15.4683211,7 7,14.7622222 7,24.3157263 Z" id="Path"></path>
            <rect id="Rectangle" x="24" y="0" width="2" height="4"></rect>
            <polygon id="Rectangle" transform="translate(13.483495, 5.297306) rotate(60.003763) translate(-13.483495, -5.297306) " points="11.6527286 4.41578181 15.3864159 4.26833766 15.3142614 6.17882976 11.5805741 6.32627391"></polygon>
            <polygon id="Rectangle" transform="translate(4.887173, 13.159216) rotate(30.005365) translate(-4.887173, -13.159216) " points="2.97182208 12.3193448 6.87469089 12.1719142 6.80252305 13.9990872 2.89965424 14.1465178"></polygon>
            <rect id="Rectangle" x="0" y="22" width="4" height="2"></rect>
            <polygon id="Rectangle" transform="translate(45.563684, 13.159216) rotate(59.995990) translate(-45.563684, -13.159216) " points="44.7238333 11.2433227 46.5510028 11.1711568 46.4035356 15.0751097 44.576366 15.1472756"></polygon>
            <polygon id="Rectangle" transform="translate(36.967995, 5.297306) rotate(30.004010) translate(-36.967995, -5.297306) " points="36.0864919 3.46652527 37.9969645 3.39435941 37.8494973 7.12808683 35.9390247 7.2002527"></polygon>
            <path d="M35.540433,69.7640137 L32.9991179,66 L30.4577217,69.7640137 C29.2132674,71.6036352 30.6542059,74 32.9991179,74 C35.35701,74 36.7848062,71.6036352 35.540433,69.7640137 Z" id="Path"></path>
            <path d="M56.5403952,69.7640137 L53.9990608,66 L51.4577265,69.7640137 C50.2132628,71.6036352 51.6542121,74 53.9990608,74 C56.3569707,74 57.7848589,71.6036352 56.5403952,69.7640137 Z" id="Path"></path>
            <path d="M25.5404305,58.7640533 L22.999101,55 L20.4577716,58.7640533 C19.2132292,60.6035826 20.6541758,63 22.999101,63 C25.3570063,63 26.7848107,60.6035827 25.5404305,58.7640533 Z" id="Path"></path>
            <path d="M45.5403844,58.7640533 L42.999055,55 L40.4577256,58.7640533 C39.2132643,60.6035826 40.6542109,63 42.999055,63 C45.3570414,63 46.7848456,60.6035827 45.5403844,58.7640533 Z" id="Path"></path>
            <path d="M67.540427,58.7640533 L64.9990781,55 L62.4577291,58.7640533 C61.2132583,60.6035826 62.6542159,63 64.9990781,63 C67.3570014,63 68.7848166,60.6035827 67.540427,58.7640533 Z" id="Path"></path>
        </g>
        <g id="noun_Location_2545201" transform="translate(69.000000, 19.000000)" fill="#000000">
            <path d="M9.11088534,0.0769230769 C14.0693759,0.0769230769 18.0769231,4.4242915 18.0769231,9.87692308 C18.0769231,14.5190283 11.8278665,24.1716599 9.11088534,28.0769231 C6.32597968,24.1716599 0.0769230769,14.5190283 0.0769230769,9.87692308 C0.0769230769,4.4242915 4.08447025,0.0769230769 9.11088534,0.0769230769 Z M9.11088534,4.94008097 C11.5561684,4.94008097 13.5939042,7.15060729 13.5939042,9.87692308 C13.5939042,12.5295547 11.5561684,14.740081 9.11088534,14.740081 C6.59767779,14.740081 4.55994194,12.5295547 4.55994194,9.87692308 C4.55994194,7.15060729 6.59767779,4.94008097 9.11088534,4.94008097 Z" id="Shape"></path>
        </g>
    </g>
</svg>